<svg width="157" height="27" viewBox="0 0 157 27" fill="none" xmlns="http://www.w3.org/2000/svg">
<g clip-path="url(#clip0_740_1515)">
<path d="M21.5518 0H26.3332V13.0195C26.3332 15.3341 25.905 17.5522 25.0486 19.5775C24.1923 21.6027 23.0505 23.1458 21.6232 24.3031C20.1959 25.4604 18.6259 26.039 16.9132 26.039H0L4.78136 19.481H16.8418C18.1264 19.481 19.1968 18.806 20.1245 17.5522C21.0523 16.2985 21.4805 14.7554 21.4805 13.0195V0H21.5518Z" fill="url(#paint0_linear_740_1515)"/>
<path d="M36.2528 26.039L41.0341 19.481H53.9509L45.8868 8.29391L33.0414 26.039H26.2618L44.6737 0.675086C44.9591 0.192882 45.3873 0 45.8868 0C46.3864 0 46.7432 0.192882 47.1 0.675086L65.5118 26.039H36.2528Z" fill="url(#paint1_linear_740_1515)"/>
<path d="M68.0809 0H89.6327V6.55798H78.8568V26.039H74.0755V6.55798H63.2996L68.0809 0Z" fill="url(#paint2_linear_740_1515)"/>
<path d="M118.892 8.19771C118.892 10.0301 118.464 11.5731 117.75 13.0197C118.535 14.4664 118.892 16.1059 118.892 17.8418C118.892 20.0599 118.321 21.9887 117.179 23.6282C116.037 25.1713 114.61 26.0393 113.04 26.0393H92.63V9.74076H113.04C113.325 9.74076 113.611 9.54788 113.825 9.25856C114.039 8.96923 114.182 8.58347 114.182 8.19771C114.182 7.81194 114.039 7.42618 113.825 7.13686C113.611 6.84754 113.325 6.65466 113.04 6.65466H92.63L97.4114 0.0966797H113.04C113.468 0.0966797 113.968 0.193121 114.396 0.289561C114.824 0.386002 115.252 0.675325 115.609 0.964647C116.037 1.25397 116.394 1.54329 116.751 1.92906C117.108 2.31482 117.393 2.70058 117.679 3.18279C117.964 3.66499 118.178 4.14719 118.392 4.72584C118.606 5.20804 118.749 5.78669 118.82 6.46177C118.892 7.13686 118.892 7.52262 118.892 8.19771ZM112.969 19.4813C113.254 19.4813 113.54 19.2884 113.754 18.9991C113.968 18.7098 114.11 18.324 114.11 17.9382C114.11 17.5525 113.968 17.1667 113.754 16.8774C113.54 16.5881 113.254 16.3952 112.969 16.3952H97.34V19.5777H112.969V19.4813Z" fill="url(#paint3_linear_740_1515)"/>
<path d="M127.67 26.0391H122.888V8.29395H127.67V26.0391Z" fill="url(#paint4_linear_740_1515)"/>
<path d="M127.67 6.17221H122.888V0H127.67V6.17221Z" fill="#A8238C"/>
<path d="M135.448 0H157V6.55798H146.224V26.039H141.443V6.55798H130.667L135.448 0Z" fill="url(#paint5_linear_740_1515)"/>
</g>
<defs>
<linearGradient id="paint0_linear_740_1515" x1="13.1557" y1="26.039" x2="13.1557" y2="0" gradientUnits="userSpaceOnUse">
<stop stop-color="#292958"/>
<stop offset="1" stop-color="#302F6E"/>
</linearGradient>
<linearGradient id="paint1_linear_740_1515" x1="45.8733" y1="0" x2="45.8733" y2="26.039" gradientUnits="userSpaceOnUse">
<stop stop-color="#A8238C"/>
<stop offset="1" stop-color="#7C297E"/>
</linearGradient>
<linearGradient id="paint2_linear_740_1515" x1="76.4697" y1="26.039" x2="76.4697" y2="0" gradientUnits="userSpaceOnUse">
<stop stop-color="#292958"/>
<stop offset="1" stop-color="#302F6E"/>
</linearGradient>
<linearGradient id="paint3_linear_740_1515" x1="105.724" y1="26.0393" x2="105.724" y2="0.000238619" gradientUnits="userSpaceOnUse">
<stop stop-color="#292958"/>
<stop offset="1" stop-color="#302F6E"/>
</linearGradient>
<linearGradient id="paint4_linear_740_1515" x1="125.274" y1="8.3411" x2="125.274" y2="26.0391" gradientUnits="userSpaceOnUse">
<stop stop-color="#A8238C"/>
<stop offset="1" stop-color="#7C297E"/>
</linearGradient>
<linearGradient id="paint5_linear_740_1515" x1="143.844" y1="26.039" x2="143.844" y2="0" gradientUnits="userSpaceOnUse">
<stop stop-color="#292958"/>
<stop offset="1" stop-color="#302F6E"/>
</linearGradient>
<clipPath id="clip0_740_1515">
<rect width="157" height="26.039" fill="white"/>
</clipPath>
</defs>
</svg>
